<svg width="23" height="19" viewBox="0 0 23 19" fill="none" xmlns="http://www.w3.org/2000/svg">
<path d="M17.9688 9.5498C17.9688 4.7334 14.0664 0.831055 9.25 0.831055C4.43359 0.831055 0.53125 4.7334 0.53125 9.5498C0.53125 13.9014 3.71957 17.5085 7.8877 18.1631V12.0702H5.67285V9.5498H7.8877V7.62887C7.8877 5.44391 9.18848 4.23699 11.1808 4.23699C12.1349 4.23699 13.1327 4.40715 13.1327 4.40715V6.55168H12.033C10.9502 6.55168 10.6123 7.22387 10.6123 7.91328V9.5498H13.0304L12.6436 12.0702H10.6123V18.1631C14.7804 17.5085 17.9688 13.9014 17.9688 9.5498Z" fill="#7D7D7D"/>
<path d="M17.9688 9.5498C17.9688 4.7334 14.0664 0.831055 9.25 0.831055C4.43359 0.831055 0.53125 4.7334 0.53125 9.5498C0.53125 13.9014 3.71957 17.5085 7.8877 18.1631V12.0702H5.67285V9.5498H7.8877V7.62887C7.8877 5.44391 9.18848 4.23699 11.1808 4.23699C12.1349 4.23699 13.1327 4.40715 13.1327 4.40715V6.55168H12.033C10.9502 6.55168 10.6123 7.22387 10.6123 7.91328V9.5498H13.0304L12.6436 12.0702H10.6123V18.1631C14.7804 17.5085 17.9688 13.9014 17.9688 9.5498Z" fill="black" fill-opacity="0.2"/>
</svg>
