<svg width="18" height="15" viewBox="0 0 18 15" fill="none" xmlns="http://www.w3.org/2000/svg">
<path d="M17.659 5.25762C17.7961 5.14863 18 5.25059 18 5.42285V12.6123C18 13.5439 17.2441 14.2998 16.3125 14.2998H1.6875C0.755859 14.2998 0 13.5439 0 12.6123V5.42637C0 5.25059 0.200391 5.15215 0.341016 5.26113C1.12852 5.87285 2.17266 6.6498 5.75859 9.25488C6.50039 9.79629 7.75195 10.9354 9 10.9283C10.2551 10.9389 11.5312 9.7752 12.2449 9.25488C15.8309 6.6498 16.8715 5.86934 17.659 5.25762ZM9 9.7998C9.81563 9.81387 10.9898 8.77324 11.5805 8.34434C16.2457 4.95879 16.6008 4.66348 17.6766 3.81973C17.8805 3.66152 18 3.41543 18 3.15527V2.4873C18 1.55566 17.2441 0.799805 16.3125 0.799805H1.6875C0.755859 0.799805 0 1.55566 0 2.4873V3.15527C0 3.41543 0.119531 3.65801 0.323437 3.81973C1.39922 4.65996 1.7543 4.95879 6.41953 8.34434C7.01016 8.77324 8.18437 9.81387 9 9.7998Z" fill="#7D7D7D"/>
<path d="M17.659 5.25762C17.7961 5.14863 18 5.25059 18 5.42285V12.6123C18 13.5439 17.2441 14.2998 16.3125 14.2998H1.6875C0.755859 14.2998 0 13.5439 0 12.6123V5.42637C0 5.25059 0.200391 5.15215 0.341016 5.26113C1.12852 5.87285 2.17266 6.6498 5.75859 9.25488C6.50039 9.79629 7.75195 10.9354 9 10.9283C10.2551 10.9389 11.5312 9.7752 12.2449 9.25488C15.8309 6.6498 16.8715 5.86934 17.659 5.25762ZM9 9.7998C9.81563 9.81387 10.9898 8.77324 11.5805 8.34434C16.2457 4.95879 16.6008 4.66348 17.6766 3.81973C17.8805 3.66152 18 3.41543 18 3.15527V2.4873C18 1.55566 17.2441 0.799805 16.3125 0.799805H1.6875C0.755859 0.799805 0 1.55566 0 2.4873V3.15527C0 3.41543 0.119531 3.65801 0.323437 3.81973C1.39922 4.65996 1.7543 4.95879 6.41953 8.34434C7.01016 8.77324 8.18437 9.81387 9 9.7998Z" fill="black" fill-opacity="0.2"/>
</svg>
