<svg width="19" height="19" viewBox="0 0 19 19" fill="none" xmlns="http://www.w3.org/2000/svg">
<path d="M9.25351 5.50664C7.01758 5.50664 5.21406 7.31016 5.21406 9.54609C5.21406 11.782 7.01758 13.5855 9.25351 13.5855C11.4895 13.5855 13.293 11.782 13.293 9.54609C13.293 7.31016 11.4895 5.50664 9.25351 5.50664ZM9.25351 12.1723C7.80859 12.1723 6.62734 10.9945 6.62734 9.54609C6.62734 8.09766 7.80508 6.91992 9.25351 6.91992C10.702 6.91992 11.8797 8.09766 11.8797 9.54609C11.8797 10.9945 10.6984 12.1723 9.25351 12.1723ZM14.4004 5.34141C14.4004 5.86523 13.9785 6.28359 13.4582 6.28359C12.9344 6.28359 12.516 5.86172 12.516 5.34141C12.516 4.82109 12.9379 4.39922 13.4582 4.39922C13.9785 4.39922 14.4004 4.82109 14.4004 5.34141ZM17.0758 6.29766C17.016 5.03555 16.7277 3.91758 15.8031 2.99648C14.882 2.07539 13.7641 1.78711 12.502 1.72383C11.2012 1.65 7.30234 1.65 6.00156 1.72383C4.74297 1.78359 3.625 2.07187 2.70039 2.99297C1.77578 3.91406 1.49101 5.03203 1.42773 6.29414C1.3539 7.59492 1.3539 11.4937 1.42773 12.7945C1.4875 14.0566 1.77578 15.1746 2.70039 16.0957C3.625 17.0168 4.73945 17.3051 6.00156 17.3684C7.30234 17.4422 11.2012 17.4422 12.502 17.3684C13.7641 17.3086 14.882 17.0203 15.8031 16.0957C16.7242 15.1746 17.0125 14.0566 17.0758 12.7945C17.1496 11.4937 17.1496 7.59844 17.0758 6.29766ZM15.3953 14.1902C15.1211 14.8793 14.5902 15.4102 13.8977 15.6879C12.8605 16.0992 10.3996 16.0043 9.25351 16.0043C8.10742 16.0043 5.64297 16.0957 4.60937 15.6879C3.92031 15.4137 3.38945 14.8828 3.11172 14.1902C2.70039 13.1531 2.79531 10.6922 2.79531 9.54609C2.79531 8.4 2.7039 5.93555 3.11172 4.90195C3.38593 4.21289 3.91679 3.68203 4.60937 3.4043C5.64648 2.99297 8.10742 3.08789 9.25351 3.08789C10.3996 3.08789 12.8641 2.99648 13.8977 3.4043C14.5867 3.67852 15.1176 4.20937 15.3953 4.90195C15.8066 5.93906 15.7117 8.4 15.7117 9.54609C15.7117 10.6922 15.8066 13.1566 15.3953 14.1902Z" fill="#7D7D7D"/>
<path d="M9.25351 5.50664C7.01758 5.50664 5.21406 7.31016 5.21406 9.54609C5.21406 11.782 7.01758 13.5855 9.25351 13.5855C11.4895 13.5855 13.293 11.782 13.293 9.54609C13.293 7.31016 11.4895 5.50664 9.25351 5.50664ZM9.25351 12.1723C7.80859 12.1723 6.62734 10.9945 6.62734 9.54609C6.62734 8.09766 7.80508 6.91992 9.25351 6.91992C10.702 6.91992 11.8797 8.09766 11.8797 9.54609C11.8797 10.9945 10.6984 12.1723 9.25351 12.1723ZM14.4004 5.34141C14.4004 5.86523 13.9785 6.28359 13.4582 6.28359C12.9344 6.28359 12.516 5.86172 12.516 5.34141C12.516 4.82109 12.9379 4.39922 13.4582 4.39922C13.9785 4.39922 14.4004 4.82109 14.4004 5.34141ZM17.0758 6.29766C17.016 5.03555 16.7277 3.91758 15.8031 2.99648C14.882 2.07539 13.7641 1.78711 12.502 1.72383C11.2012 1.65 7.30234 1.65 6.00156 1.72383C4.74297 1.78359 3.625 2.07187 2.70039 2.99297C1.77578 3.91406 1.49101 5.03203 1.42773 6.29414C1.3539 7.59492 1.3539 11.4937 1.42773 12.7945C1.4875 14.0566 1.77578 15.1746 2.70039 16.0957C3.625 17.0168 4.73945 17.3051 6.00156 17.3684C7.30234 17.4422 11.2012 17.4422 12.502 17.3684C13.7641 17.3086 14.882 17.0203 15.8031 16.0957C16.7242 15.1746 17.0125 14.0566 17.0758 12.7945C17.1496 11.4937 17.1496 7.59844 17.0758 6.29766ZM15.3953 14.1902C15.1211 14.8793 14.5902 15.4102 13.8977 15.6879C12.8605 16.0992 10.3996 16.0043 9.25351 16.0043C8.10742 16.0043 5.64297 16.0957 4.60937 15.6879C3.92031 15.4137 3.38945 14.8828 3.11172 14.1902C2.70039 13.1531 2.79531 10.6922 2.79531 9.54609C2.79531 8.4 2.7039 5.93555 3.11172 4.90195C3.38593 4.21289 3.91679 3.68203 4.60937 3.4043C5.64648 2.99297 8.10742 3.08789 9.25351 3.08789C10.3996 3.08789 12.8641 2.99648 13.8977 3.4043C14.5867 3.67852 15.1176 4.20937 15.3953 4.90195C15.8066 5.93906 15.7117 8.4 15.7117 9.54609C15.7117 10.6922 15.8066 13.1566 15.3953 14.1902Z" fill="black" fill-opacity="0.2"/>
</svg>
