<svg width="16" height="17" viewBox="0 0 16 17" fill="none" xmlns="http://www.w3.org/2000/svg">
<path d="M3.65047 16.2995H0.385156V5.78422H3.65047V16.2995ZM2.01605 4.34984C0.971914 4.34984 0.125 3.485 0.125 2.44086C0.125 1.93932 0.324236 1.45832 0.678877 1.10368C1.03352 0.74904 1.51452 0.549805 2.01605 0.549805C2.51759 0.549805 2.99859 0.74904 3.35323 1.10368C3.70787 1.45832 3.90711 1.93932 3.90711 2.44086C3.90711 3.485 3.05984 4.34984 2.01605 4.34984ZM15.8715 16.2995H12.6132V11.1807C12.6132 9.96078 12.5886 8.39633 10.9155 8.39633C9.21781 8.39633 8.95766 9.72172 8.95766 11.0928V16.2995H5.69586V5.78422H8.82758V7.21859H8.87328C9.30922 6.39242 10.3741 5.52055 11.9628 5.52055C15.2675 5.52055 15.875 7.69672 15.875 10.5233V16.2995H15.8715Z" fill="#7D7D7D"/>
<path d="M3.65047 16.2995H0.385156V5.78422H3.65047V16.2995ZM2.01605 4.34984C0.971914 4.34984 0.125 3.485 0.125 2.44086C0.125 1.93932 0.324236 1.45832 0.678877 1.10368C1.03352 0.74904 1.51452 0.549805 2.01605 0.549805C2.51759 0.549805 2.99859 0.74904 3.35323 1.10368C3.70787 1.45832 3.90711 1.93932 3.90711 2.44086C3.90711 3.485 3.05984 4.34984 2.01605 4.34984ZM15.8715 16.2995H12.6132V11.1807C12.6132 9.96078 12.5886 8.39633 10.9155 8.39633C9.21781 8.39633 8.95766 9.72172 8.95766 11.0928V16.2995H5.69586V5.78422H8.82758V7.21859H8.87328C9.30922 6.39242 10.3741 5.52055 11.9628 5.52055C15.2675 5.52055 15.875 7.69672 15.875 10.5233V16.2995H15.8715Z" fill="black" fill-opacity="0.2"/>
</svg>
