<svg width="29" height="30" viewBox="0 0 29 30" fill="none" xmlns="http://www.w3.org/2000/svg">
<path d="M14.47 3.6748C12.2202 3.6748 10.021 4.34193 8.15036 5.59183C6.27975 6.84173 4.82179 8.61827 3.96085 10.6968C3.0999 12.7753 2.87464 15.0624 3.31354 17.269C3.75245 19.4755 4.83581 21.5023 6.42664 23.0931C8.01746 24.684 10.0443 25.7673 12.2509 26.2062C14.4574 26.6451 16.7445 26.4199 18.823 25.5589C20.9015 24.698 22.6781 23.24 23.928 21.3694C25.1779 19.4988 25.845 17.2996 25.845 15.0498C25.8392 12.0347 24.6389 9.14482 22.507 7.01285C20.375 4.88087 17.4851 3.68058 14.47 3.6748ZM18.8013 16.3295L15.0934 20.0482C14.9262 20.21 14.7027 20.3004 14.47 20.3004C14.2374 20.3004 14.0138 20.21 13.8466 20.0482L10.1387 16.3295C9.98791 16.163 9.90688 15.945 9.91241 15.7204C9.91794 15.4959 10.0096 15.2821 10.1684 15.1233C10.3272 14.9644 10.5411 14.8728 10.7656 14.8672C10.9902 14.8617 11.2082 14.9427 11.3747 15.0935L13.595 17.3139V10.6748C13.595 10.4427 13.6872 10.2202 13.8513 10.0561C14.0154 9.89199 14.2379 9.7998 14.47 9.7998C14.7021 9.7998 14.9246 9.89199 15.0887 10.0561C15.2528 10.2202 15.345 10.4427 15.345 10.6748V17.3139L17.5653 15.0935C17.7318 14.9427 17.9498 14.8617 18.1744 14.8672C18.3989 14.8728 18.6127 14.9644 18.7716 15.1233C18.9304 15.2821 19.022 15.4959 19.0276 15.7204C19.0331 15.945 18.9521 16.163 18.8013 16.3295Z" fill="#E2E2E2"/>
</svg>
