<svg width="28" height="30" viewBox="0 0 28 30" fill="none" xmlns="http://www.w3.org/2000/svg">
<path d="M14.0002 26.4258C16.25 26.4258 18.4492 25.7587 20.3199 24.5088C22.1905 23.2589 23.6484 21.4823 24.5094 19.4038C25.3703 17.3253 25.5956 15.0382 25.1567 12.8316C24.7178 10.6251 23.6344 8.59828 22.0436 7.00748C20.4528 5.41658 18.4259 4.33328 16.2193 3.89438C14.0128 3.45548 11.7257 3.68068 9.64725 4.54168C7.56875 5.40258 5.79215 6.86058 4.54225 8.73118C3.29235 10.6018 2.62525 12.801 2.62525 15.0508C2.63105 18.0659 3.83135 20.9558 5.96325 23.0877C8.09525 25.2197 10.9851 26.42 14.0002 26.4258ZM9.66895 13.7711L13.3768 10.0524C13.544 9.89058 13.7675 9.80018 14.0002 9.80018C14.2328 9.80018 14.4564 9.89058 14.6236 10.0524L18.3315 13.7711C18.4823 13.9376 18.5633 14.1556 18.5578 14.3802C18.5523 14.6047 18.4606 14.8185 18.3018 14.9773C18.143 15.1362 17.9291 15.2278 17.7046 15.2334C17.48 15.2389 17.262 15.1579 17.0955 15.0071L14.8752 12.7867V19.4258C14.8752 19.6578 14.783 19.8804 14.6189 20.0445C14.4548 20.2086 14.2323 20.3008 14.0002 20.3008C13.7681 20.3008 13.5456 20.2086 13.3815 20.0445C13.2174 19.8804 13.1252 19.6578 13.1252 19.4258V12.7867L10.9049 15.0071C10.7384 15.1579 10.5204 15.2389 10.2958 15.2334C10.0713 15.2278 9.85755 15.1362 9.69865 14.9773C9.53985 14.8185 9.44825 14.6047 9.44265 14.3802C9.43715 14.1556 9.51815 13.9376 9.66895 13.7711Z" fill="#E2E2E2"/>
</svg>
