<svg width="120" height="121" viewBox="0 0 120 121" fill="none" xmlns="http://www.w3.org/2000/svg">
<rect y="0.549805" width="120" height="120" rx="60" fill="#EADDFF"/>
<path fill-rule="evenodd" clip-rule="evenodd" d="M78.0007 48.5498C78.0007 58.4909 69.9419 66.5498 60.0007 66.5498C50.0596 66.5498 42.0007 58.4909 42.0007 48.5498C42.0007 38.6087 50.0596 30.5498 60.0007 30.5498C69.9419 30.5498 78.0007 38.6087 78.0007 48.5498ZM72.0007 48.5498C72.0007 55.1772 66.6281 60.5498 60.0007 60.5498C53.3733 60.5498 48.0007 55.1772 48.0007 48.5498C48.0007 41.9224 53.3733 36.5498 60.0007 36.5498C66.6281 36.5498 72.0007 41.9224 72.0007 48.5498Z" fill="#4F378A"/>
<path d="M60.0007 75.5498C40.5776 75.5498 24.0286 87.035 17.7246 103.126C19.2603 104.651 20.878 106.093 22.5706 107.446C27.2648 92.6729 41.9909 81.5498 60.0007 81.5498C78.0106 81.5498 92.7367 92.6729 97.4309 107.446C99.1235 106.093 100.741 104.651 102.277 103.126C95.973 87.0351 79.4239 75.5498 60.0007 75.5498Z" fill="#4F378A"/>
</svg>
