<svg width="249" height="349" viewBox="0 0 249 349" fill="none" xmlns="http://www.w3.org/2000/svg">
<g clip-path="url(#clip0_2_351)">
<g clip-path="url(#clip1_2_351)">
<path d="M237.695 456.628C234.922 462.122 227.078 462.122 224.305 456.628L211.673 431.607C208.974 426.26 201.739 425.307 197.747 429.773L179.07 450.673C174.97 455.261 167.393 453.231 166.136 447.207L160.411 419.769C159.187 413.906 152.445 411.113 147.434 414.394L123.984 429.747C118.836 433.118 112.043 429.196 112.388 423.052L113.959 395.067C114.295 389.087 108.505 384.644 102.816 386.517L76.191 395.277C70.346 397.201 64.799 391.654 66.723 385.809L75.484 359.184C77.356 353.495 72.9131 347.705 66.933 348.041L38.948 349.612C32.804 349.957 28.882 343.164 32.253 338.016L47.606 314.566C50.887 309.555 48.094 302.813 42.231 301.589L14.793 295.864C8.76904 294.607 6.73901 287.03 11.327 282.93L32.227 264.253C36.693 260.261 35.7401 253.026 30.393 250.327L5.37204 237.695C-0.121948 234.922 -0.121948 227.078 5.37204 224.305L30.393 211.673C35.7401 208.974 36.693 201.739 32.227 197.747L11.327 179.07C6.73901 174.97 8.76904 167.393 14.793 166.136L42.231 160.411C48.094 159.187 50.887 152.445 47.606 147.434L32.253 123.984C28.882 118.836 32.804 112.043 38.948 112.388L66.933 113.959C72.9131 114.295 77.356 108.505 75.484 102.816L66.723 76.191C64.799 70.346 70.346 64.799 76.191 66.723L102.816 75.484C108.505 77.356 114.295 72.9131 113.959 66.933L112.388 38.948C112.043 32.804 118.836 28.882 123.984 32.253L147.434 47.606C152.445 50.887 159.187 48.094 160.411 42.231L166.136 14.793C167.393 8.76904 174.97 6.73901 179.07 11.327L197.747 32.227C201.739 36.693 208.974 35.7401 211.673 30.393L224.305 5.37204C227.078 -0.121948 234.922 -0.121948 237.695 5.37204L250.327 30.393C253.026 35.7401 260.261 36.693 264.253 32.227L282.93 11.327C287.03 6.73901 294.607 8.76904 295.864 14.793L301.589 42.231C302.813 48.094 309.555 50.887 314.566 47.606L338.016 32.253C343.164 28.882 349.957 32.804 349.612 38.948L348.041 66.933C347.705 72.9131 353.495 77.356 359.184 75.484L385.809 66.723C391.654 64.799 397.201 70.346 395.277 76.191L386.517 102.816C384.644 108.505 389.087 114.295 395.067 113.959L423.052 112.388C429.196 112.043 433.118 118.836 429.747 123.984L414.394 147.434C411.113 152.445 413.906 159.187 419.769 160.411L447.207 166.136C453.231 167.393 455.261 174.97 450.673 179.07L429.773 197.747C425.307 201.739 426.26 208.974 431.607 211.673L456.628 224.305C462.122 227.078 462.122 234.922 456.628 237.695L431.607 250.327C426.26 253.026 425.307 260.261 429.773 264.253L450.673 282.93C455.261 287.03 453.231 294.607 447.207 295.864L419.769 301.589C413.906 302.813 411.113 309.555 414.394 314.566L429.747 338.016C433.118 343.164 429.196 349.957 423.052 349.612L395.067 348.041C389.087 347.705 384.644 353.495 386.517 359.184L395.277 385.809C397.201 391.654 391.654 397.201 385.809 395.277L359.184 386.517C353.495 384.644 347.705 389.087 348.041 395.067L349.612 423.052C349.957 429.196 343.164 433.118 338.016 429.747L314.566 414.394C309.555 411.113 302.813 413.906 301.589 419.769L295.864 447.207C294.607 453.231 287.03 455.261 282.93 450.673L264.253 429.773C260.261 425.307 253.026 426.26 250.327 431.607L237.695 456.628Z" fill="#0A0A0A" stroke="url(#paint0_linear_2_351)"/>
</g>
</g>
<defs>
<linearGradient id="paint0_linear_2_351" x1="471" y1="471" x2="-8.99994" y2="-8.99997" gradientUnits="userSpaceOnUse">
<stop offset="0.462983" stop-color="#363636" stop-opacity="0"/>
<stop offset="1" stop-color="#363636"/>
</linearGradient>
<clipPath id="clip0_2_351">
<rect width="375" height="349" fill="white" transform="matrix(-1 0 0 -1 375 349)"/>
</clipPath>
<clipPath id="clip1_2_351">
<rect width="375" height="349" fill="white" transform="matrix(-1 0 0 -1 375 349)"/>
</clipPath>
</defs>
</svg>
