
<svg width="221" height="220" viewBox="0 0 221 220" fill="none" xmlns="http://www.w3.org/2000/svg">
<g clip-path="url(#clip0_2_547)">
<g clip-path="url(#clip1_2_547)">
<g clip-path="url(#clip2_2_547)">
<path d="M21.448 204L72.7207 16H148.279L199.552 204H21.448ZM200.241 206.526C200.241 206.526 200.24 206.524 200.24 206.522L200.241 206.526Z" stroke="url(#paint0_linear_2_547)" stroke-width="32"/>
<path d="M95.2559 85.8951C96.2051 82.4146 99.3664 80 102.974 80H118.026C121.634 80 124.795 82.4146 125.744 85.8951L137.744 129.895C139.132 134.984 135.301 140 130.026 140H90.974C85.699 140 81.868 134.984 83.2559 129.895L95.2559 85.8951Z" fill="url(#paint1_linear_2_547)"/>
</g>
</g>
</g>
<defs>
<linearGradient id="paint0_linear_2_547" x1="110.5" y1="8.47012e-07" x2="110.5" y2="220" gradientUnits="userSpaceOnUse">
<stop stop-color="#2B2B2B"/>
<stop offset="1" stop-color="#2B2B2B" stop-opacity="0"/>
</linearGradient>
<linearGradient id="paint1_linear_2_547" x1="110.5" y1="80" x2="110.5" y2="140" gradientUnits="userSpaceOnUse">
<stop stop-color="#2B2B2B"/>
<stop offset="1" stop-color="#2B2B2B" stop-opacity="0"/>
</linearGradient>
<clipPath id="clip0_2_547">
<rect width="220" height="220" fill="white" transform="translate(0.5)"/>
</clipPath>
<clipPath id="clip1_2_547">
<rect width="220" height="220" fill="white" transform="translate(0.5)"/>
</clipPath>
<clipPath id="clip2_2_547">
<rect width="220" height="220" fill="white" transform="translate(0.5)"/>
</clipPath>
</defs>
</svg>
