<svg width="221" height="220" viewBox="0 0 221 220" fill="none" xmlns="http://www.w3.org/2000/svg">
<g clip-path="url(#clip0_2_570)">
<g clip-path="url(#clip1_2_570)">
<mask id="mask0_2_570" style="mask-type:luminance" maskUnits="userSpaceOnUse" x="0" y="0" width="221" height="220">
<path d="M206.5 0H14.5C6.76801 0 0.5 6.26801 0.5 14V206C0.5 213.732 6.76801 220 14.5 220H206.5C214.232 220 220.5 213.732 220.5 206V14C220.5 6.26801 214.232 0 206.5 0Z" fill="white"/>
</mask>
<g mask="url(#mask0_2_570)">
<path d="M206.5 0H14.5C6.76801 0 0.5 6.26801 0.5 14V206C0.5 213.732 6.76801 220 14.5 220H206.5C214.232 220 220.5 213.732 220.5 206V14C220.5 6.26801 214.232 0 206.5 0Z" stroke="url(#paint0_linear_2_570)" stroke-width="64"/>
</g>
<path d="M132.5 80H88.5C84.0817 80 80.5 83.5817 80.5 88V132C80.5 136.418 84.0817 140 88.5 140H132.5C136.918 140 140.5 136.418 140.5 132V88C140.5 83.5817 136.918 80 132.5 80Z" fill="url(#paint1_linear_2_570)"/>
</g>
</g>
<defs>
<linearGradient id="paint0_linear_2_570" x1="110.5" y1="0" x2="110.5" y2="220" gradientUnits="userSpaceOnUse">
<stop stop-color="#2B2B2B"/>
<stop offset="1" stop-color="#2B2B2B" stop-opacity="0"/>
</linearGradient>
<linearGradient id="paint1_linear_2_570" x1="110.5" y1="80" x2="110.5" y2="140" gradientUnits="userSpaceOnUse">
<stop stop-color="#2B2B2B"/>
<stop offset="1" stop-color="#2B2B2B" stop-opacity="0"/>
</linearGradient>
<clipPath id="clip0_2_570">
<rect width="220" height="220" fill="white" transform="translate(0.5)"/>
</clipPath>
<clipPath id="clip1_2_570">
<rect width="220" height="220" fill="white" transform="translate(0.5)"/>
</clipPath>
</defs>
</svg>
