<svg width="16" height="16" viewBox="0 0 16 16" fill="none" xmlns="http://www.w3.org/2000/svg">
<path d="M13.3606 0.690437L1.1731 7.71876C0.165291 8.30176 0.261971 9.79298 1.3401 10.2354L4.68873 11.6211V14.0938C4.68873 15.4531 6.4231 16.0127 7.22584 14.9316L8.50904 13.2002L11.7874 14.5537C11.9602 14.624 12.1419 14.6592 12.3235 14.6592C12.5637 14.6592 12.801 14.5977 13.0149 14.4775C13.3899 14.2666 13.6477 13.8916 13.7151 13.4668L15.4553 2.12305C15.634 0.948249 14.3743 0.107429 13.3606 0.690437ZM6.09498 14.0938V12.2012L7.16724 12.6436L6.09498 14.0938ZM12.3235 13.2529L7.81764 11.3926L11.9251 5.46583C12.2385 5.01173 11.6467 4.48438 11.2307 4.84473L5.03443 10.2441L1.87623 8.93751L14.0637 1.90626L12.3235 13.2529Z" fill="white"/>
</svg>
