<svg width="50" height="51" viewBox="0 0 50 51" fill="none" xmlns="http://www.w3.org/2000/svg">
<path d="M23.4375 16.0149C23.4375 17.56 22.9794 19.0705 22.1208 20.3554C21.2623 21.64 20.0422 22.6415 18.6147 23.2327C17.1872 23.824 15.6163 23.9788 14.1009 23.6772C12.5854 23.3758 11.1933 22.6318 10.1007 21.5391C9.00814 20.4466 8.26406 19.0546 7.96262 17.5391C7.66117 16.0235 7.81589 14.4527 8.40718 13.0252C8.9985 11.5976 9.99986 10.3775 11.2846 9.51903C12.5694 8.6606 14.0798 8.20239 15.625 8.20239C17.697 8.20239 19.6842 9.0255 21.1492 10.4906C22.6144 11.9558 23.4375 13.9429 23.4375 16.0149ZM34.375 23.8274C35.9202 23.8274 37.4306 23.3693 38.7155 22.5107C40.0002 21.6522 41.0016 20.4321 41.5928 19.0046C42.1841 17.5771 42.3389 16.0062 42.0373 14.4908C41.7359 12.9753 40.9919 11.5832 39.8992 10.4906C38.8067 9.39803 37.4147 8.65395 35.8992 8.35252C34.3836 8.05106 32.8128 8.20578 31.3853 8.79708C29.9578 9.38839 28.7377 10.3898 27.8792 11.6745C27.0206 12.9593 26.5625 14.4697 26.5625 16.0149C26.5625 18.0869 27.3856 20.0741 28.8508 21.5391C30.3159 23.0043 32.303 23.8274 34.375 23.8274ZM15.625 26.9524C14.0798 26.9524 12.5694 27.4105 11.2846 28.2691C9.99986 29.1275 8.9985 30.3477 8.40718 31.7752C7.81589 33.2027 7.66117 34.7735 7.96262 36.2891C8.26406 37.8046 9.00814 39.1966 10.1007 40.2891C11.1933 41.3818 12.5854 42.1258 14.1009 42.4272C15.6163 42.7288 17.1872 42.574 18.6147 41.9827C20.0422 41.3915 21.2623 40.39 22.1208 39.1054C22.9794 37.8205 23.4375 36.31 23.4375 34.7649C23.4375 32.6929 22.6144 30.7058 21.1492 29.2407C19.6842 27.7755 17.697 26.9524 15.625 26.9524ZM34.375 26.9524C32.8298 26.9524 31.3194 27.4105 30.0347 28.2691C28.7498 29.1275 27.7484 30.3477 27.1572 31.7752C26.5659 33.2027 26.4111 34.7735 26.7127 36.2891C27.0141 37.8046 27.7581 39.1966 28.8508 40.2891C29.9433 41.3818 31.3353 42.1258 32.8508 42.4272C34.3664 42.7288 35.9372 42.574 37.3647 41.9827C38.7923 41.3915 40.0123 40.39 40.8709 39.1054C41.7294 37.8205 42.1875 36.31 42.1875 34.7649C42.1875 32.6929 41.3644 30.7058 39.8992 29.2407C38.4342 27.7755 36.447 26.9524 34.375 26.9524Z" fill="white"/>
</svg>
