<svg width="242" height="241" viewBox="0 0 242 241" fill="none" xmlns="http://www.w3.org/2000/svg">
<path d="M236.628 113.855L234.36 112.71C229.013 110.01 228.06 102.775 232.526 98.7837L234.421 97.0903C239.01 92.9898 236.979 85.4131 230.955 84.1561L228.468 83.6371C222.604 82.4136 219.811 75.6715 223.093 70.6602L224.485 68.5341C227.855 63.3858 223.933 56.5927 217.789 56.9377L215.252 57.0802C209.272 57.416 204.829 51.6264 206.701 45.9367L207.496 43.5228C209.419 37.6774 203.873 32.1308 198.027 34.0543L195.613 34.8486C189.924 36.7208 184.134 32.2783 184.47 26.2979L184.612 23.7607C184.957 17.6166 178.164 13.6946 173.016 17.0655L170.89 18.4575C165.878 21.7385 159.136 18.9458 157.913 13.0823L157.394 10.5946C156.137 4.5706 148.56 2.54043 144.46 7.12889L142.766 9.02376C138.775 13.49 131.54 12.5375 128.84 7.19038L127.695 4.92181C124.922 -0.571594 117.078 -0.571594 114.305 4.92181L113.16 7.19038C110.46 12.5375 103.225 13.49 99.2337 9.02376L97.5403 7.12889C93.4398 2.54043 85.8631 4.5706 84.6061 10.5946L84.0871 13.0823C82.8636 18.9458 76.1215 21.7385 71.1102 18.4575L68.9841 17.0655C63.8358 13.6946 57.0427 17.6166 57.3877 23.7607L57.5302 26.2979C57.866 32.2783 52.0764 36.7208 46.3867 34.8486L43.9728 34.0543C38.1274 32.1308 32.5808 37.6774 34.5043 43.5228L35.2986 45.9367C37.1708 51.6264 32.7283 57.416 26.7479 57.0802L24.2107 56.9377C18.0666 56.5927 14.1446 63.3858 17.5155 68.5341L18.9075 70.6602C22.1885 75.6715 19.3958 82.4136 13.5323 83.6371L11.0446 84.1561C5.02061 85.4131 2.99045 92.9898 7.57891 97.0903L9.47377 98.7837C13.94 102.775 12.9875 110.01 7.6404 112.71L5.37183 113.855C-0.121582 116.628 -0.121582 124.472 5.37183 127.245L7.6404 128.39C12.9875 131.09 13.94 138.325 9.47377 142.316L7.57891 144.01C2.99045 148.11 5.02061 155.687 11.0446 156.944L13.5323 157.463C19.3958 158.686 22.1885 165.428 18.9075 170.44L17.5155 172.566C14.1446 177.714 18.0666 184.507 24.2107 184.162L26.7479 184.02C32.7283 183.684 37.1708 189.474 35.2986 195.163L34.5043 197.577C32.5808 203.423 38.1274 208.969 43.9728 207.046L46.3867 206.251C52.0764 204.379 57.866 208.822 57.5302 214.802L57.3877 217.339C57.0427 223.483 63.8358 227.405 68.9841 224.035L71.1102 222.643C76.1215 219.361 82.8636 222.154 84.0871 228.018L84.6061 230.505C85.8631 236.529 93.4398 238.56 97.5403 233.971L99.2337 232.076C103.225 227.61 110.46 228.563 113.16 233.91L114.305 236.178C117.078 241.672 124.922 241.672 127.695 236.178L128.84 233.91C131.54 228.563 138.775 227.61 142.766 232.076L144.46 233.971C148.56 238.56 156.137 236.529 157.394 230.505L157.913 228.018C159.136 222.154 165.878 219.361 170.89 222.643L173.016 224.035C178.164 227.405 184.957 223.483 184.612 217.339L184.47 214.802C184.134 208.822 189.924 204.379 195.613 206.251L198.027 207.046C203.873 208.969 209.419 203.423 207.496 197.577L206.701 195.163C204.829 189.474 209.272 183.684 215.252 184.02L217.789 184.162C223.933 184.507 227.855 177.714 224.485 172.566L223.093 170.44C219.811 165.428 222.604 158.686 228.468 157.463L230.955 156.944C236.979 155.687 239.01 148.11 234.421 144.01L232.526 142.316C228.06 138.325 229.013 131.09 234.36 128.39L236.628 127.245C242.122 124.472 242.122 116.628 236.628 113.855Z" fill="#141414" stroke="url(#paint0_linear_2_60)"/>
<defs>
<linearGradient id="paint0_linear_2_60" x1="251" y1="250.55" x2="-9.00002" y2="-9.45003" gradientUnits="userSpaceOnUse">
<stop stop-color="#363636"/>
<stop offset="1" stop-color="#363636" stop-opacity="0.5"/>
</linearGradient>
</defs>
</svg>
