<svg width="123" height="124" viewBox="0 0 123 124" fill="none" xmlns="http://www.w3.org/2000/svg">
<g clip-path="url(#clip0_2_1025)">
<g clip-path="url(#clip1_2_1025)">
<g clip-path="url(#clip2_2_1025)">
<path d="M64.9028 120.819L65.4848 119.667C66.8571 116.949 70.5344 116.465 72.563 118.735L73.4237 119.698C75.5079 122.03 79.3588 120.998 79.9977 117.936L80.2615 116.672C80.8834 113.692 84.3102 112.272 86.8572 113.94L87.9378 114.648C90.5545 116.36 94.0072 114.367 93.8319 111.244L93.7594 109.955C93.5888 106.915 96.5314 104.657 99.4233 105.609L100.65 106.013C103.621 106.99 106.44 104.171 105.463 101.2L105.059 99.9729C104.107 97.0814 106.365 94.1386 109.405 94.3093L110.695 94.3815C113.817 94.5569 115.811 91.1042 114.098 88.4877L113.39 87.4071C111.722 84.8597 113.142 81.433 116.122 80.8114L117.386 80.5476C120.448 79.9087 121.48 76.0576 119.148 73.9737L118.185 73.1127C115.915 71.0842 116.399 67.4069 119.117 66.0346L120.27 65.4526C123.062 64.0432 123.062 60.0564 120.27 58.647L119.117 58.065C116.399 56.6927 115.915 53.0154 118.185 50.9868L119.148 50.1261C121.48 48.0419 120.448 44.191 117.386 43.5521L116.122 43.2883C113.142 42.6664 111.722 39.2397 113.39 36.6926L114.098 35.612C115.811 32.9953 113.817 29.5426 110.695 29.7179L109.405 29.7904C106.365 29.961 104.107 27.0184 105.059 24.1265L105.463 22.8996C106.44 19.9286 103.621 17.1095 100.65 18.0871L99.4233 18.4908C96.5314 19.4424 93.5888 17.1844 93.7594 14.1448L93.8319 12.8552C94.0072 9.73241 90.5545 7.73899 87.9378 9.4523L86.8572 10.1598C84.3102 11.8274 80.8834 10.408 80.2615 7.42778L79.9977 6.16337C79.3588 3.1016 75.5079 2.06974 73.4237 4.40189L72.563 5.36499C70.5344 7.635 66.8571 7.15088 65.4848 4.43315L64.9028 3.28011C63.4934 0.488009 59.5066 0.488009 58.0972 3.28011L57.5152 4.43315C56.1429 7.15088 52.4656 7.635 50.4371 5.36499L49.5761 4.40189C47.4922 2.06974 43.6411 3.1016 43.0022 6.16337L42.7384 7.42778C42.1168 10.408 38.6901 11.8274 36.1427 10.1598L35.0621 9.4523C32.4456 7.73899 28.9929 9.73241 29.1683 12.8552L29.2405 14.1448C29.4112 17.1844 26.4684 19.4424 23.5769 18.4908L22.3499 18.0871C19.3786 17.1095 16.5598 19.9286 17.5372 22.8996L17.9412 24.1265C18.8927 27.0184 16.6345 29.961 13.5951 29.7904L12.3056 29.7179C9.18282 29.5426 7.18941 32.9953 8.90225 35.612L9.60976 36.6926C11.2779 39.2397 9.8583 42.6664 6.87784 43.2883L5.61378 43.5521C2.55199 44.191 1.51971 48.0419 3.85213 50.1261L4.8153 50.9868C7.08521 53.0154 6.60083 56.6927 3.88314 58.065L2.7304 58.647C-0.0620117 60.0564 -0.0620117 64.0432 2.7304 65.4526L3.88314 66.0346C6.60083 67.4069 7.08521 71.0842 4.8153 73.1127L3.85213 73.9737C1.51971 76.0576 2.55199 79.9087 5.61378 80.5476L6.87784 80.8114C9.8583 81.433 11.2779 84.8597 9.60976 87.4071L8.90225 88.4877C7.18941 91.1042 9.18282 94.5569 12.3056 94.3815L13.5951 94.3093C16.6345 94.1386 18.8927 97.0814 17.9412 99.9729L17.5372 101.2C16.5598 104.171 19.3786 106.99 22.3499 106.013L23.5769 105.609C26.4684 104.657 29.4112 106.915 29.2405 109.955L29.1683 111.244C28.9929 114.367 32.4456 116.36 35.0621 114.648L36.1427 113.94C38.6901 112.272 42.1168 113.692 42.7384 116.672L43.0022 117.936C43.6411 120.998 47.4922 122.03 49.5761 119.698L50.4371 118.735C52.4656 116.465 56.1429 116.949 57.5152 119.667L58.0972 120.819C59.5066 123.612 63.4934 123.612 64.9028 120.819Z" fill="#141414" stroke="url(#paint0_linear_2_1025)" stroke-width="0.508264"/>
</g>
</g>
</g>
<defs>
<linearGradient id="paint0_linear_2_1025" x1="-4.57438" y1="128.124" x2="127.574" y2="-4.02459" gradientUnits="userSpaceOnUse">
<stop stop-color="#363636"/>
<stop offset="1" stop-color="#363636" stop-opacity="2"/>
</linearGradient>
<clipPath id="clip0_2_1025">
<rect width="123" height="123" fill="white" transform="matrix(0 1 -1 0 123 0.549805)"/>
</clipPath>
<clipPath id="clip1_2_1025">
<rect width="123" height="123" fill="white" transform="matrix(0 1 -1 0 123 0.549805)"/>
</clipPath>
<clipPath id="clip2_2_1025">
<rect width="123" height="123" fill="white" transform="matrix(0 1 -1 0 123 0.549805)"/>
</clipPath>
</defs>
</svg>
