<svg width="36" height="43" viewBox="0 0 36 43" fill="none" xmlns="http://www.w3.org/2000/svg">
<path d="M0.872578 10.4077L17.2512 17.8376C17.7293 18.0549 18.27 18.0549 18.7481 17.8376L35.1267 10.4077C36.2904 9.87965 36.2904 8.12113 35.1267 7.59308L18.7488 0.162458C18.5139 0.0550848 18.2586 -0.000488281 18.0004 -0.000488281C17.7421 -0.000488281 17.4868 0.0550848 17.2519 0.162458L0.872578 7.59238C-0.291093 8.12043 -0.291093 9.87965 0.872578 10.4077ZM35.1274 16.6149L31.043 14.7636L19.6777 19.9153C19.1461 20.1565 18.5815 20.2789 18 20.2789C17.4185 20.2789 16.8546 20.1565 16.3223 19.9153L4.95774 14.7636L0.872578 16.6149C-0.291093 17.1422 -0.291093 18.9 0.872578 19.4274L17.2512 26.8517C17.7293 27.0682 18.27 27.0682 18.7481 26.8517L35.1274 19.4274C36.2911 18.9 36.2911 17.1422 35.1274 16.6149ZM35.1274 25.6008L31.0584 23.7565L19.6777 28.9153C19.1461 29.1565 18.5815 29.2789 18 29.2789C17.4185 29.2789 16.8546 29.1565 16.3223 28.9153L4.94227 23.7565L0.872578 25.6008C-0.291093 26.1282 -0.291093 27.886 0.872578 28.4133L17.2512 35.8376C17.7293 36.0542 18.27 36.0542 18.7481 35.8376L35.1274 28.4133C36.2911 27.886 36.2911 26.1282 35.1274 25.6008Z" fill="white"/>
</svg>
