<svg width="375" height="349" viewBox="0 0 375 349" fill="none" xmlns="http://www.w3.org/2000/svg">

<g clip-path="url(#clip0_2_345)">

<g clip-path="url(#clip1_2_345)">

<path d="M137.305 -107.628C140.078 -113.122 147.922 -113.122 150.695 -107.628L163.327 -82.6067C166.026 -77.2597 173.261 -76.3071 177.253 -80.7734L195.93 -101.673C200.03 -106.261 207.607 -104.231 208.864 -98.2072L214.589 -70.7691C215.813 -64.9056 222.555 -62.1129 227.566 -65.3939L251.016 -80.7473C256.164 -84.1182 262.957 -80.1962 262.612 -74.0521L261.041 -46.0671C260.705 -40.0868 266.495 -35.6443 272.184 -37.5165L298.809 -46.2774C304.654 -48.2009 310.201 -42.6544 308.277 -36.809L299.516 -10.1843C297.644 -4.4946 302.087 1.29498 308.067 0.95916L336.052 -0.612312C342.196 -0.957329 346.118 5.83575 342.747 10.9841L327.394 34.4341C324.113 39.4454 326.906 46.1875 332.769 47.4109L360.207 53.136C366.231 54.393 368.261 61.9697 363.673 66.0702L342.773 84.7474C338.307 88.7387 339.26 95.9739 344.607 98.6732L369.628 111.305C375.122 114.078 375.122 121.922 369.628 124.695L344.607 137.327C339.26 140.026 338.307 147.261 342.773 151.253L363.673 169.93C368.261 174.03 366.231 181.607 360.207 182.864L332.769 188.589C326.906 189.813 324.113 196.555 327.394 201.566L342.747 225.016C346.118 230.164 342.196 236.957 336.052 236.612L308.067 235.041C302.087 234.705 297.644 240.495 299.516 246.184L308.277 272.809C310.201 278.654 304.654 284.201 298.809 282.277L272.184 273.516C266.495 271.644 260.705 276.087 261.041 282.067L262.612 310.052C262.957 316.196 256.164 320.118 251.016 316.747L227.566 301.394C222.555 298.113 215.813 300.906 214.589 306.769L208.864 334.207C207.607 340.231 200.03 342.261 195.93 337.673L177.253 316.773C173.261 312.307 166.026 313.26 163.327 318.607L150.695 343.628C147.922 349.122 140.078 349.122 137.305 343.628L124.673 318.607C121.974 313.26 114.739 312.307 110.747 316.773L92.0702 337.673C87.9697 342.261 80.393 340.231 79.136 334.207L73.4109 306.769C72.1875 300.906 65.4454 298.113 60.4341 301.394L36.9841 316.747C31.8357 320.118 25.0427 316.196 25.3877 310.052L26.9592 282.067C27.295 276.087 21.5054 271.644 15.8157 273.516L-10.809 282.277C-16.6544 284.201 -22.2009 278.654 -20.2774 272.809L-11.5165 246.184C-9.64425 240.495 -14.0868 234.705 -20.0671 235.041L-48.0521 236.612C-54.1962 236.957 -58.1182 230.164 -54.7473 225.016L-39.3939 201.566C-36.1129 196.555 -38.9056 189.813 -44.7691 188.589L-72.2072 182.864C-78.2312 181.607 -80.2614 174.03 -75.6729 169.93L-54.7734 151.253C-50.3071 147.261 -51.2597 140.026 -56.6067 137.327L-81.6282 124.695C-87.1216 121.922 -87.1216 114.078 -81.6282 111.305L-56.6067 98.6732C-51.2597 95.9739 -50.3071 88.7387 -54.7734 84.7474L-75.6729 66.0702C-80.2614 61.9697 -78.2312 54.393 -72.2072 53.136L-44.7691 47.4109C-38.9056 46.1875 -36.1129 39.4453 -39.3939 34.4341L-54.7473 10.9841C-58.1182 5.83575 -54.1962 -0.957329 -48.0521 -0.612312L-20.0671 0.95916C-14.0868 1.29498 -9.64425 -4.4946 -11.5165 -10.1843L-20.2774 -36.809C-22.2009 -42.6544 -16.6544 -48.2009 -10.809 -46.2774L15.8157 -37.5165C21.5054 -35.6443 27.295 -40.0868 26.9592 -46.0671L25.3877 -74.0521C25.0427 -80.1962 31.8358 -84.1182 36.9842 -80.7473L60.4341 -65.3939C65.4454 -62.1129 72.1875 -64.9056 73.4109 -70.7691L79.136 -98.2072C80.393 -104.231 87.9697 -106.261 92.0702 -101.673L110.747 -80.7734C114.739 -76.3071 121.974 -77.2597 124.673 -82.6067L137.305 -107.628Z" fill="#0A0A0A" stroke="url(#paint0_linear_2_345)"/>

</g>

</g>

<defs>

<linearGradient id="paint0_linear_2_345" x1="-96" y1="-122" x2="384" y2="358" gradientUnits="userSpaceOnUse">

<stop offset="0.462983" stop-color="#363636" stop-opacity="0.5"/>

<stop offset="1" stop-color="#363636"/>

</linearGradient>

<clipPath id="clip0_2_345">

<rect width="375" height="349" fill="white"/>

</clipPath>

<clipPath id="clip1_2_345">

<rect width="375" height="349" fill="white"/>

</clipPath>

</defs>

</svg>

